<svg xmlns="http://www.w3.org/2000/svg" width="2048" height="2048">
<defs>
</defs>

<path d="M1027.32,1585.41 C1026.8,1585.53 1025.8,1585.18 1025.02,1586.35 C1025.02,1586.35 1012.75,1583.53 1012.75,1583.53 C1012.75,1583.53 1006.96,1581.25 1006.96,1581.25 C1006.96,1581.25 990.424,1572.73 990.424,1572.73 C990.424,1572.73 979.858,1567.08 979.858,1567.08 C979.858,1567.08 966.259,1559.79 966.259,1559.79 C966.259,1559.79 955.66,1554.09 955.66,1554.09 C955.66,1554.09 933.327,1541.68 933.327,1541.68 C933.327,1541.68 922.835,1536.09 922.835,1536.09 C922.835,1536.09 913.848,1531.09 913.848,1531.09 C913.848,1531.09 906.796,1527.06 906.796,1527.06 C906.796,1527.06 867.016,1504.75 867.016,1504.75 C867.016,1504.75 858.891,1500.01 858.891,1500.01 C858.891,1500.01 808.503,1470.88 808.503,1470.88 C767.091,1446.94 728.421,1418.4 694.108,1382.68 C663.113,1350.41 636.684,1315.46 616.417,1277.41 C616.417,1277.41 601.734,1248.26 601.734,1248.26 C601.734,1248.26 598.738,1241.27 598.738,1241.27 C598.738,1241.27 587.03,1212.24 587.03,1212.24 C567.097,1156.69 558.838,1098.55 558.999,1037.41 C558.999,1037.41 559.237,946.888 559.237,946.888 C559.237,946.888 559.317,731.096 559.317,731.096 C559.317,731.096 559.391,636.055 559.391,636.055 C559.415,605.932 577.777,583.007 605.779,575.328 C605.779,575.328 687.681,552.869 687.681,552.869 C687.681,552.869 880.021,499.356 880.021,499.356 C880.021,499.356 1012.77,462.176 1012.77,462.176 C1020.56,459.994 1027.5,460.323 1035.08,462.343 C1035.08,462.343 1052.06,466.87 1052.06,466.87 C1052.06,466.87 1059.32,468.781 1059.32,468.781 C1059.32,468.781 1093.03,478.311 1093.03,478.311 C1093.03,478.311 1109.11,482.857 1109.11,482.857 C1109.11,482.857 1129.16,488.229 1129.16,488.229 C1129.16,488.229 1137.54,490.653 1137.54,490.653 C1137.54,490.653 1172.02,500.232 1172.02,500.232 C1172.02,500.232 1181.03,502.878 1181.03,502.878 C1181.03,502.878 1188.33,504.792 1188.33,504.792 C1188.33,504.792 1221.08,513.959 1221.08,513.959 C1221.08,513.959 1225.03,515.077 1225.03,515.077 C1225.03,515.077 1251.07,522.212 1251.07,522.212 C1251.07,522.212 1260.17,524.822 1260.17,524.822 C1260.17,524.822 1280.12,530.257 1280.12,530.257 C1280.12,530.257 1289.11,532.849 1289.11,532.849 C1289.11,532.849 1309.11,538.32 1309.11,538.32 C1309.11,538.32 1317.42,540.601 1317.42,540.601 C1317.42,540.601 1324.54,542.565 1324.54,542.565 C1324.54,542.565 1351.02,550.255 1351.02,550.255 C1351.02,550.255 1368.09,554.803 1368.09,554.803 C1368.09,554.803 1375.27,556.754 1375.27,556.754 C1375.27,556.754 1394.97,562.057 1394.97,562.057 C1394.97,562.057 1397.94,563.104 1397.94,563.104 C1397.94,563.104 1424.12,570.247 1424.12,570.247 C1424.12,570.247 1432.43,572.628 1432.43,572.628 C1432.43,572.628 1439.54,574.518 1439.54,574.518 C1439.54,574.518 1445.56,576.687 1445.56,576.687 C1471.66,583.066 1488.7,605.962 1488.69,633.01 C1488.69,633.01 1488.66,702.223 1488.66,702.223 C1488.66,702.223 1488.31,1080.44 1488.31,1080.44 C1488.31,1084.48 1487.83,1089.6 1487.41,1093.5 C1487.41,1093.5 1485.35,1112.38 1485.35,1112.38 C1485.35,1112.38 1483.4,1125.44 1483.4,1125.44 C1483.4,1125.44 1481.41,1137.55 1481.41,1137.55 C1481.41,1137.55 1477.51,1156.01 1477.51,1156.01 C1477.51,1156.01 1475.43,1165.46 1475.43,1165.46 C1475.43,1165.46 1471.71,1179.11 1471.71,1179.11 C1471.71,1179.11 1467.18,1194.15 1467.18,1194.15 C1467.18,1194.15 1459.88,1215.1 1459.88,1215.1 C1459.67,1216.2 1459.88,1217.09 1458.43,1217.93 C1431.67,1290.66 1384.02,1358.13 1324.47,1410.63 C1300.72,1431.57 1275.62,1449.33 1248.22,1465.42 C1181.61,1504.53 1114.81,1542.28 1046.31,1578.07 C1039.63,1581.56 1033.93,1583.94 1027.32,1585.41 Z M1394.84,1071.69 C1394.84,1071.69 1395.1,659.342 1395.1,659.342 C1395.1,659.342 1382.66,656.201 1382.66,656.201 C1382.66,656.201 1364.68,651.396 1364.68,651.396 C1364.19,651.266 1362.49,649.833 1362.04,649.977 C1360.03,650.618 1358.3,649.215 1356.99,648.852 C1356.99,648.852 1322.6,639.365 1322.6,639.365 C1322.6,639.365 1307.67,635.213 1307.67,635.213 C1307.67,635.213 1281,627.874 1281,627.874 C1281,627.874 1278.73,627.037 1278.73,627.037 C1278.73,627.037 1264.54,623.113 1264.54,623.113 C1264.54,623.113 1199.77,605.099 1199.77,605.099 C1199.77,605.099 1192.66,603.203 1192.66,603.203 C1192.66,603.203 1173.9,597.815 1173.9,597.815 C1173.9,597.815 1171.56,598.043 1171.56,598.043 C1171.56,598.043 1170.11,596.786 1170.11,596.786 C1170.11,596.786 1163.64,595.236 1163.64,595.236 C1163.64,595.236 1134.83,587.143 1134.83,587.143 C1134.83,587.143 1127.61,585.168 1127.61,585.168 C1127.61,585.168 1098.81,577.065 1098.81,577.065 C1096.44,576.397 1093.84,575.774 1091.81,575.221 C1091.81,575.221 1084.75,573.3 1084.75,573.3 C1084.75,573.3 1070.72,569.261 1070.72,569.261 C1070.72,569.261 1055.67,565.137 1055.67,565.137 C1055.67,565.137 1023.25,556.239 1023.25,556.239 C1023.25,556.239 995.163,564.351 995.163,564.351 C995.163,564.351 653.007,659.419 653.007,659.419 C653.007,659.419 653.102,1071.14 653.102,1071.14 C653.102,1071.14 654.478,1089 654.478,1089 C654.478,1089 657.443,1109.19 657.443,1109.19 C657.443,1109.19 659.667,1121.15 659.667,1121.15 C674.554,1201.2 715.919,1276.17 778.266,1334.56 C802.365,1357.13 828.231,1374.64 855.812,1390.39 C855.812,1390.39 937.802,1437.2 937.802,1437.2 C941.683,1439.41 945.46,1441.61 948.663,1443.33 C948.663,1443.33 959.658,1449.25 959.658,1449.25 C959.658,1449.25 970.274,1454.93 970.274,1454.93 C970.274,1454.93 1007.63,1475.3 1007.63,1475.3 C1007.63,1475.3 1023.9,1483.37 1023.9,1483.37 C1023.9,1483.37 1043.8,1473.67 1043.8,1473.67 C1043.8,1473.67 1131.01,1426.04 1131.01,1426.04 C1131.01,1426.04 1197.77,1387.73 1197.77,1387.73 C1272.99,1344.56 1332.3,1277.37 1365.86,1197.96 C1378.4,1168.28 1386.37,1138.32 1390.71,1107.54 C1390.71,1107.54 1392.8,1092.69 1392.8,1092.69 C1392.8,1092.69 1394.84,1071.69 1394.84,1071.69 Z " fill="rgb(15,172,121)"/>

<path d="M1203.63,787.79 C1209.89,801.039 1220.61,812.374 1234.31,818.944 C1234.31,818.944 1192.56,860.661 1192.56,860.661 C1192.56,860.661 1134.59,918.898 1134.59,918.898 C1122.07,900.748 1106.84,885.985 1087.75,875.222 C1063.53,861.551 1037.18,854.661 1008.97,854.838 C1008.97,854.838 884.242,854.771 884.242,854.771 C884.242,854.771 884.327,1193.08 884.327,1193.08 C884.327,1193.08 1014.94,1192.97 1014.94,1192.97 C1040.85,1192.95 1064.7,1185.11 1087.07,1173.2 C1122.84,1154.67 1148.3,1117.46 1157.9,1078.99 C1168.33,1037.23 1166.02,985.676 1149.76,946.383 C1149.76,946.383 1167.51,928.38 1167.51,928.38 C1167.51,928.38 1209.98,885.105 1209.98,885.105 C1209.98,885.105 1219.52,875.366 1219.52,875.366 C1253.97,931.697 1264.32,999.403 1256.64,1065.68 C1254.26,1086.27 1249.41,1105.26 1242.78,1124.75 C1222.4,1184.7 1179.28,1234.98 1121.73,1262.75 C1087.1,1278.14 1050.11,1287.39 1011.67,1287.45 C1011.67,1287.45 789.077,1287.81 789.077,1287.81 C789.077,1287.81 789.073,760.907 789.073,760.907 C789.073,760.907 1016.92,761.127 1016.92,761.127 C1049.41,761.158 1080.02,769.063 1109.72,780.188 C1132.73,789.645 1153.34,802.169 1171.54,818.931 C1171.54,818.931 1203.63,787.79 1203.63,787.79 Z " fill="rgb(15,172,121)"/>
<path d="M1234.31,818.944 C1220.61,812.374 1209.89,801.039 1203.63,787.79 C1192.66,764.572 1196.12,736.799 1212.71,716.809 C1233.2,692.129 1267.92,685.356 1295.75,701.284 C1316.23,713.003 1328.91,734.653 1329.26,757.568 C1329.63,781.423 1317.99,803.825 1297.17,816.125 C1277.93,827.487 1254.45,828.597 1234.31,818.944 Z M1265.08,786.125 C1282.1,785.199 1293.04,768.59 1289.02,752.599 C1285.07,736.852 1267.92,727.586 1252.35,734.538 C1240.27,739.931 1234.51,753.046 1237.56,765.668 C1240.45,777.588 1251.69,786.854 1265.08,786.125 Z " fill="rgb(10,75,50)"/>
<path d="M1265.08,786.125 C1251.69,786.854 1240.45,777.588 1237.56,765.668 C1234.51,753.046 1240.27,739.931 1252.35,734.538 C1267.92,727.586 1285.07,736.852 1289.02,752.599 C1293.04,768.59 1282.1,785.199 1265.08,786.125 Z " fill="rgb(17,169,119)"/>
</svg>